<svg width="78" height="80" viewBox="0 0 78 80" fill="none" xmlns="http://www.w3.org/2000/svg">
<g clip-path="url(#clip0_750_3005)">
<path d="M76.333 20.5854H62.9453V19.1351C62.9453 18.4284 62.387 17.8554 61.698 17.8554C61.009 17.8554 60.4507 18.4284 60.4507 19.1351V20.5854H47.063C46.374 20.5854 45.8157 21.1584 45.8157 21.8651C45.8157 22.5719 46.374 23.1448 47.063 23.1448H57.7898V26.0497C57.7622 26.0479 57.7347 26.0455 57.7066 26.0455H20.4539C20.4258 26.0455 20.3984 26.0479 20.3708 26.0497V23.1448H31.0975C31.7865 23.1448 32.3448 22.5719 32.3448 21.8651C32.3448 21.1584 31.7865 20.5854 31.0975 20.5854H17.7099V19.1351C17.7099 18.4284 17.1516 17.8554 16.4626 17.8554C15.7735 17.8554 15.2153 18.4284 15.2153 19.1351V20.5854H1.82756C1.13855 20.5854 0.580261 21.1584 0.580261 21.8651C0.580261 22.5719 1.13855 23.1448 1.82756 23.1448H12.5543V27.3252C12.5543 29.0888 13.6703 30.5889 15.2153 31.1243V32.7852C15.2153 33.4919 15.7735 34.0649 16.4626 34.0649C17.1516 34.0649 17.7099 33.4919 17.7099 32.7852V31.1243C18.8735 30.721 19.7932 29.7706 20.1763 28.5721C20.2657 28.5929 20.3583 28.605 20.4539 28.605H27.4361L27.7812 30.1982C26.3177 30.4529 25.1286 31.5442 24.7002 32.9748C21.6931 33.5365 18.5253 36.3366 17.9656 39.8754C16.3741 40.3827 15.2153 41.9078 15.2153 43.7053C15.2153 45.4689 16.3312 46.969 17.8762 47.5045V50.8264C16.3312 51.3618 15.2153 52.862 15.2153 54.6256V55.6886L14.0165 58.1483C13.9299 58.3259 13.8848 58.5216 13.8848 58.7204V61.4504C13.8848 62.1572 14.4431 62.7301 15.1321 62.7301C15.8211 62.7301 16.3794 62.1572 16.3794 61.4504V59.0226L17.2334 57.2701H21.0135L21.8675 59.0226V61.4504C21.8675 62.1572 22.4258 62.7301 23.1148 62.7301C23.8038 62.7301 24.3621 62.1572 24.3621 61.4504V58.7204C24.3621 58.5216 24.317 58.3258 24.2304 58.1481L23.0317 55.6884V54.6254C23.0317 52.8618 21.9157 51.3616 20.3708 50.8262V47.5043C21.9157 46.9689 23.0317 45.4687 23.0317 43.7051C23.0317 41.9885 21.9745 40.5209 20.4932 39.9502C20.9891 37.8416 22.9251 36.0652 24.782 35.569C25.3418 37.0818 26.7684 38.1599 28.4366 38.1599H29.5301C29.7328 38.7831 30.0726 39.3296 30.5118 39.7664L28.3339 42.0009C27.5958 42.7582 27.1892 43.7652 27.1892 44.8362V46.5206H25.7756C25.0865 46.5206 24.5283 47.0936 24.5283 47.8003C24.5283 48.5071 25.0865 49.08 25.7756 49.08H31.0974C31.7864 49.08 32.3447 48.5071 32.3447 47.8003C32.3447 47.0936 31.7864 46.5206 31.0974 46.5206H29.6839V44.836C29.6839 44.4486 29.8309 44.0844 30.098 43.8104L32.9563 40.8779C33.0477 40.8843 33.1391 40.8898 33.2319 40.8898H44.9283C45.0211 40.8898 45.1127 40.8842 45.2038 40.8779L48.0621 43.8104C48.3292 44.0843 48.4763 44.4486 48.4763 44.836V46.5206H47.0626C46.3736 46.5206 45.8153 47.0936 45.8153 47.8003C45.8153 48.5071 46.3736 49.08 47.0626 49.08H52.3845C53.0735 49.08 53.6318 48.5071 53.6318 47.8003C53.6318 47.0936 53.0735 46.5206 52.3845 46.5206H50.9712V44.836C50.9712 43.765 50.5647 42.758 49.8265 42.0007L47.6485 39.7662C48.0878 39.3294 48.4275 38.7831 48.6303 38.1598H49.7237C51.3919 38.1598 52.8185 37.0816 53.3783 35.5692C55.2353 36.0653 57.1713 37.8417 57.6672 39.9503C56.1861 40.5211 55.1289 41.9886 55.1289 43.7053C55.1289 45.4689 56.2448 46.969 57.7898 47.5045V50.8264C56.2448 51.3618 55.1289 52.862 55.1289 54.6256V55.6886L53.9301 58.1483C53.8435 58.3261 53.7984 58.5218 53.7984 58.7206V61.4506C53.7984 62.1573 54.3567 62.7303 55.0457 62.7303C55.7347 62.7303 56.293 62.1573 56.293 61.4506V59.0228L57.147 57.2701H60.9271L61.7811 59.0226V61.4504C61.7811 62.1572 62.3394 62.7301 63.0284 62.7301C63.7174 62.7301 64.2757 62.1572 64.2757 61.4504V58.7204C64.2757 58.5216 64.2307 58.3258 64.144 58.1481L62.9453 55.6884V54.6254C62.9453 52.8618 61.8294 51.3616 60.2844 50.8262V47.5043C61.8294 46.9689 62.9453 45.4687 62.9453 43.7051C62.9453 41.9076 61.7864 40.3825 60.1951 39.8751C59.6354 36.3363 56.4676 33.5361 53.4605 32.9744C53.0321 31.5439 51.8428 30.4524 50.3795 30.1978L50.7246 28.6047H57.7066C57.8021 28.6047 57.8949 28.5926 57.9842 28.5718C58.3673 29.7702 59.287 30.7208 60.4507 31.124V32.7849C60.4507 33.4916 61.009 34.0646 61.698 34.0646C62.387 34.0646 62.9453 33.4916 62.9453 32.7849V31.124C64.4903 30.5886 65.6062 29.0884 65.6062 27.3248V23.1448H76.333C77.022 23.1448 77.5803 22.5719 77.5803 21.8651C77.5803 21.1584 77.022 20.5854 76.333 20.5854ZM16.4626 28.7755C15.6831 28.7755 15.0489 28.1249 15.0489 27.3252V23.1448H17.8762V27.3252C17.8762 28.1249 17.242 28.7755 16.4626 28.7755ZM20.5371 54.7107H17.7099V54.6254C17.7099 53.8257 18.344 53.1751 19.1235 53.1751C19.9029 53.1751 20.5371 53.8257 20.5371 54.6254V54.7107ZM19.1235 45.1556C18.344 45.1556 17.7099 44.505 17.7099 43.7053C17.7099 42.9056 18.344 42.255 19.1235 42.255C19.9029 42.255 20.5371 42.9056 20.5371 43.7053C20.5371 44.505 19.9029 45.1556 19.1235 45.1556ZM60.4507 54.7107H57.6235V54.6254C57.6235 53.8257 58.2576 53.1751 59.0371 53.1751C59.8165 53.1751 60.4507 53.8257 60.4507 54.6254V54.7107ZM59.0371 45.1556C58.2576 45.1556 57.6235 44.505 57.6235 43.7053C57.6235 42.9056 58.2576 42.255 59.0371 42.255C59.8165 42.255 60.4507 42.9056 60.4507 43.7053C60.4507 44.505 59.8165 45.1556 59.0371 45.1556ZM27.023 34.1502C27.023 33.3894 27.5974 32.7647 28.3244 32.7057L28.9514 35.6005H28.4366C27.6572 35.6005 27.023 34.95 27.023 34.1502ZM51.1375 34.1502C51.1375 34.95 50.5034 35.6005 49.7239 35.6005H49.2092L49.8361 32.7057C50.5631 32.7647 51.1375 33.3894 51.1375 34.1502ZM46.3084 37.1949C46.1636 37.8636 45.5962 38.3306 44.9284 38.3306H33.2321C32.5644 38.3306 31.9969 37.8636 31.8521 37.1949L29.9914 28.6049H48.1689L46.3084 37.1949ZM63.1116 27.3252C63.1116 28.1249 62.4774 28.7755 61.698 28.7755C60.9185 28.7755 60.2844 28.1249 60.2844 27.3252V23.1448H63.1116V27.3252Z" fill="#FAF5FF"/>
<path d="M35.0889 35.4299C35.7779 35.4299 36.3362 34.857 36.3362 34.1502V32.7852C36.3362 32.0785 35.7779 31.5055 35.0889 31.5055C34.3999 31.5055 33.8416 32.0785 33.8416 32.7852V34.1502C33.8416 34.857 34.3999 35.4299 35.0889 35.4299Z" fill="#FAF5FF"/>
<path d="M43.0716 35.4299C43.7606 35.4299 44.3189 34.857 44.3189 34.1502V32.7852C44.3189 32.0785 43.7606 31.5055 43.0716 31.5055C42.3826 31.5055 41.8243 32.0785 41.8243 32.7852V34.1502C41.8243 34.857 42.3826 35.4299 43.0716 35.4299Z" fill="#FAF5FF"/>
</g>
<defs>
<clipPath id="clip0_750_3005">
<rect width="77" height="79" fill="white" transform="translate(0.580261 0.792786)"/>
</clipPath>
</defs>
</svg>
